<svg xmlns="http://www.w3.org/2000/svg" width="27" height="133" viewBox="0 0 27 133" preserveAspectRatio="none">
<path fill="rgb(103,103,103)" stroke="rgb(0,0,0)" stroke-width="0.65" stroke-linejoin="round" d="M 3 110 L 3 129 L 4 126 Z"/>
<path fill="rgb(103,103,103)" stroke="rgb(0,0,0)" stroke-width="0.65" stroke-linejoin="round" d="M 0 2 L 0 5 L 3 8 L 1 10 L 5 10 L 6 11 L 3 12 L 4 35 L 5 36 L 5 42 L 3 48 L 7 58 L 6 90 L 7 91 L 7 96 L 8 97 L 8 102 L 9 103 L 9 108 L 10 109 L 10 114 L 11 115 L 11 117 L 7 120 L 7 123 L 8 121 L 11 123 L 8 126 L 9 129 L 25 130 L 25 125 L 24 124 L 24 106 L 23 105 L 23 87 L 22 86 L 22 62 L 21 61 L 20 21 L 19 20 L 19 12 L 18 11 L 19 10 L 20 3 L 19 2 Z"/>
<path fill="rgb(52,52,52)" d="M 3 110 L 3 129 L 3 126 L 4 125 Z"/>
<path fill="rgb(52,52,52)" d="M 0 2 L 0 5 L 3 8 L 1 10 L 5 10 L 6 11 L 3 12 L 4 34 L 5 35 L 5 42 L 3 48 L 7 58 L 6 89 L 7 90 L 7 96 L 8 97 L 8 102 L 9 103 L 9 108 L 10 109 L 10 114 L 11 115 L 11 117 L 7 120 L 7 123 L 8 121 L 11 123 L 8 126 L 9 129 L 25 130 L 25 125 L 24 124 L 24 106 L 23 105 L 23 87 L 22 86 L 22 62 L 21 61 L 20 21 L 19 20 L 19 12 L 18 11 L 19 10 L 20 3 L 19 2 Z"/>
</svg>
