<?xml version="1.0" standalone="no"?>
<!DOCTYPE svg PUBLIC "-//W3C//DTD SVG 20010904//EN"
 "http://www.w3.org/TR/2001/REC-SVG-20010904/DTD/svg10.dtd">
<svg version="1.0" xmlns="http://www.w3.org/2000/svg"
 width="32.000000pt" height="32.000000pt" viewBox="0 0 32.000000 32.000000"
 preserveAspectRatio="xMidYMid meet">

<g transform="translate(0.000000,32.000000) scale(0.100000,-0.100000)"
fill="#000000" stroke="none">
<path d="M136 290 c-4 -9 0 -33 8 -55 11 -32 15 -36 21 -23 4 10 0 35 -8 55
-11 27 -17 33 -21 23z"/>
<path d="M122 145 c18 -25 35 -45 38 -45 3 0 20 20 38 45 29 41 30 45 12 45
-12 0 -25 -10 -32 -25 -6 -14 -14 -25 -18 -25 -4 0 -13 11 -20 25 -7 14 -22
25 -31 25 -16 0 -14 -7 13 -45z"/>
<path d="M30 136 c0 -8 8 -12 23 -9 18 3 29 -7 57 -51 19 -31 42 -56 50 -56 8
0 30 26 49 56 28 47 37 55 57 51 16 -3 24 0 24 9 0 9 -12 14 -34 14 -29 0 -37
-6 -65 -52 l-32 -51 -32 51 c-28 46 -36 52 -64 52 -21 0 -33 -5 -33 -14z"/>
</g>
</svg>
